<?xml version="1.0" standalone="no"?>
<!DOCTYPE svg PUBLIC "-//W3C//DTD SVG 20010904//EN"
 "http://www.w3.org/TR/2001/REC-SVG-20010904/DTD/svg10.dtd">
<svg version="1.0" xmlns="http://www.w3.org/2000/svg"
 width="250.000000pt" height="250.000000pt" viewBox="0 0 250.000000 250.000000"
 preserveAspectRatio="xMidYMid meet">
<metadata>
Created by potrace 1.14, written by Peter Selinger 2001-2017
</metadata>
<g transform="translate(0.000000,250.000000) scale(0.100000,-0.100000)"
fill="#000000" stroke="none">
<path d="M990 1823 c-23 -27 -83 -93 -134 -147 -50 -55 -95 -104 -101 -110
-16 -18 -209 -230 -220 -242 -5 -6 -48 -53 -95 -104 -47 -52 -113 -123 -147
-159 -34 -36 -60 -68 -58 -70 2 -2 28 -4 57 -6 52 -2 54 -1 103 50 46 48 190
205 225 245 8 9 58 63 110 120 52 57 102 111 110 120 24 28 180 198 240 263
81 87 81 87 12 87 -58 0 -60 -1 -102 -47z"/>
<path d="M1218 1772 c-48 -53 -102 -113 -120 -133 -18 -19 -55 -60 -82 -90
-27 -30 -72 -79 -100 -109 -28 -30 -96 -105 -151 -165 -55 -61 -119 -130 -142
-155 -75 -81 -113 -125 -113 -130 0 -3 61 -5 136 -5 l136 1 62 65 c33 37 77
84 96 105 30 32 232 254 265 290 8 8 88 96 190 208 6 6 52 57 104 114 l93 102
-143 0 -144 -1 -87 -97z"/>
<path d="M1252 1257 l3 -61 58 -1 c60 -1 59 -2 59 50 0 79 4 75 -62 74 l-61
-1 3 -61z"/>
<path d="M1454 1306 c-3 -8 -4 -35 -2 -62 l3 -48 53 1 c28 0 56 1 61 2 4 1 8
27 7 59 l-2 57 -57 2 c-40 1 -60 -2 -63 -11z"/>
<path d="M1250 1068 l0 -63 53 1 c29 0 57 3 62 6 6 3 10 30 9 60 l-1 53 -61 3
-62 3 0 -63z"/>
<path d="M1456 1123 c-12 -12 -6 -111 7 -115 10 -3 87 -3 108 1 3 1 5 27 5 59
l-1 57 -56 2 c-31 1 -60 -1 -63 -4z"/>
<path d="M1469 906 c-2 -2 -29 -7 -59 -10 -136 -16 -271 -42 -390 -76 -36 -10
-78 -21 -95 -24 -16 -2 -53 -9 -81 -15 -180 -36 -425 -32 -574 9 -41 12 -118
41 -170 66 l-95 44 49 -46 c181 -168 451 -241 776 -211 92 9 103 11 270 48
186 42 161 37 340 64 228 33 533 38 740 10 19 -2 58 -7 85 -11 28 -3 88 -15
134 -25 46 -11 85 -18 87 -16 2 2 -35 22 -83 45 -103 49 -250 95 -366 116 -45
8 -98 18 -117 22 -38 6 -445 16 -451 10z"/>
</g>
</svg>
